<?xml version="1.0" standalone="no"?><!DOCTYPE svg PUBLIC "-//W3C//DTD SVG 1.1//EN" "http://www.w3.org/Graphics/SVG/1.1/DTD/svg11.dtd"><svg t="1562936761301" class="icon" viewBox="0 0 1024 1024" version="1.1" xmlns="http://www.w3.org/2000/svg" p-id="2173" xmlns:xlink="http://www.w3.org/1999/xlink" width="64" height="64"><defs><style type="text/css"></style></defs><path d="M966.3 55.7H57.9C26 55.7 0.1 81.6 0.1 113.5v675.7C0.1 821.1 26 847 57.9 847h423.5v70.3H170.5c-14.1 0-25.6 11.5-25.6 25.6 0 14.1 11.5 25.6 25.6 25.6h683.2c14.1 0 25.6-11.5 25.6-25.6 0-14.1-11.5-25.6-25.6-25.6H542.8V847h423.5c31.9 0 57.8-25.9 57.8-57.8V113.5c0-31.9-25.9-57.8-57.8-57.8z" fill="#2868F0" p-id="2174"></path><path d="M101.8 152.1h61.4v41h-61.4zM218.8 152.1h61.4v41h-61.4zM335.8 152.1h61.4v41h-61.4z" fill="#ffffff" p-id="2175"></path><path d="M101.8 240.7h586.6v41H101.8zM101.8 329.4h469.6v41H101.8zM614.5 329.4h240.3v41H614.5zM560.4 522.1h51.2v236.5h-51.2z" fill="#ffffff" p-id="2176"></path><path d="M662.8 437.6H714v323.1h-51.2z" fill="#ffffff" p-id="2177"></path><path d="M765.2 496.1h51.2v264.6h-51.2z" fill="#ffffff" p-id="2178"></path><path d="M867.6 437.6h51.2v323.1h-51.2z" fill="#ffffff" p-id="2179"></path><path d="M289 588.3V404c-101.8 0-184.3 82.5-184.3 184.3S187.2 772.6 289 772.6s184.3-82.5 184.3-184.3H289z m0 153.6c-84.7 0-153.6-68.9-153.6-153.6 0-74.2 52.9-136.3 122.9-150.5V619h181.2c-14.2 70-76.3 122.9-150.5 122.9z" fill="#ffffff" p-id="2180"></path></svg>