<?xml version="1.0" standalone="no"?><!DOCTYPE svg PUBLIC "-//W3C//DTD SVG 1.1//EN" "http://www.w3.org/Graphics/SVG/1.1/DTD/svg11.dtd"><svg t="1552976757411" class="icon" style="" viewBox="0 0 1024 1024" version="1.1" xmlns="http://www.w3.org/2000/svg" p-id="3256" xmlns:xlink="http://www.w3.org/1999/xlink" width="200" height="200"><defs><style type="text/css"></style></defs><path d="M527.3 201.1c-102-0.6-185.4 81.9-186 183.8-0.6 101.9 81.8 185.4 183.8 186 101.9 0.6 185.4-81.8 186-183.8 0.6-102-81.8-185.4-183.8-186z m-64.8 42.4c0-5.9 4.9-10.7 10.8-10.7l107.7 0.6c2.9 0 5.6 1.2 7.6 3.2s3.1 4.8 3.1 7.7l-0.8 142.2-10.8-0.3-8.9-0.3-1.8-5.3-16.4-47.5c-3.9-11.2-14.4-18.8-26.3-18.9-11.9 0-22.5 7.4-26.5 18.5l-18.9 52.7-8.9 0.1-10.7 0.1 0.8-142.1zM631 420.6L573.7 463l20.3 68c0.8 2.6-0.2 5.4-2.4 7.1-1.1 0.8-2.5 1.2-3.8 1.2-1.3 0-2.6-0.5-3.7-1.2l-58.5-40.8-59.1 40.1c-0.6 0.4-1.2 0.7-1.8 0.8-0.2 0.1-0.4 0-0.7 0.1-0.4 0-0.8 0.1-1.2 0.1-0.4-0.1-0.9-0.1-1.3-0.2-0.2 0-0.4 0-0.6-0.1-0.6-0.2-1.2-0.5-1.8-0.9-2.2-1.7-3.1-4.5-2.3-7.1l21.1-67.6-56.7-43.1c-2.2-1.7-3.1-4.5-2.2-7.1 0.9-2.7 3.3-4.4 6.1-4.5l36.6-0.5 10.8-0.1 10.8-0.2 9.2-0.1h4.3l2.3-6.5 21.5-60.3c0.9-2.5 3.4-4.2 6.1-4.2 2.7 0 5.1 1.7 6.1 4.3l20.9 60.6 2.2 6.5 4.3 0.1 9.2 0.2 10.7 0.3 10.8 0.3 36.6 1c2.8 0.1 5.2 1.8 6 4.5 0.6 2.4-0.3 5.3-2.5 6.9z" fill="#5CA8FF" p-id="3257"></path><path d="M874.3 120c0-15.1-12.4-27.4-27.7-27.4l-669.4 0.4c-7.4 0-14.4 2.9-19.6 8-5.2 5.2-8.1 12.1-8.1 19.4l0.5 783.7c0 15.1 12.4 27.4 27.7 27.4l669.4-0.5c7.4 0 14.4-2.9 19.6-8 5.2-5.2 8.1-12.1 8.1-19.4l-0.5-783.6zM693.2 817.9H359.5c-12.6 0-25.2-14.2-25.2-28.4s9.4-28.4 25.2-28.4h333.6c15.7 0 25.2 10.7 25.2 28.4 0 14.2-9.4 28.4-25.1 28.4z m0-113.8H359.5c-12.6 0-25.2-14.2-25.2-28.4s9.4-28.4 25.2-28.4h333.6c15.7 0 25.2 10.7 25.2 28.4 0 14.2-9.4 28.4-25.1 28.4z m35.7-233c-11.2 26.2-27.3 49.7-47.6 69.8-20.4 20.1-44 35.9-70.3 46.8-27.3 11.3-56.2 17-85.9 16.8-29.8-0.2-58.6-6.1-85.7-17.8-26.2-11.3-49.6-27.4-69.8-47.7-20.1-20.4-35.9-44-46.8-70.4-11.3-27.3-17-56.2-16.8-85.9 0.2-29.8 6.2-58.6 17.9-85.7 11.2-26.2 27.3-49.7 47.7-69.8 20.3-20.1 44-35.9 70.3-46.8 27.3-11.3 56.2-17 85.9-16.8 29.8 0.2 58.6 6.2 85.7 17.8 26.2 11.3 49.7 27.3 69.8 47.6 20.1 20.4 35.9 44.1 46.8 70.4 11.3 27.2 17 56.1 16.8 85.9-0.3 29.9-6.3 58.7-18 85.8z" fill="#5CA8FF" p-id="3258"></path></svg>