<?xml version="1.0" standalone="no"?><!DOCTYPE svg PUBLIC "-//W3C//DTD SVG 1.1//EN" "http://www.w3.org/Graphics/SVG/1.1/DTD/svg11.dtd"><svg t="1552976720038" class="icon" style="" viewBox="0 0 1024 1024" version="1.1" xmlns="http://www.w3.org/2000/svg" p-id="2791" xmlns:xlink="http://www.w3.org/1999/xlink" width="200" height="200"><defs><style type="text/css"></style></defs><path d="M798.6 78H224.9c-22.1 0-43.3 9-58.8 24.9-15.6 15.9-24.2 37.5-24.1 59.9v697.9c0 46.6 36.6 84.8 82.9 84.8h573.7c22.1 0 43.3-9 58.8-24.9 15.6-15.9 24.2-37.5 24.1-59.9V162.1c0-46.5-37.1-84.1-82.9-84.1zM312.7 248.7h355.6c15.7 0 28.4 12.7 28.4 28.4s-12.7 28.4-28.4 28.4H312.7c-15.7 0-28.4-12.7-28.4-28.4s12.7-28.4 28.4-28.4z m0 156.4H526c15.7 0 28.4 12.7 28.4 28.4s-12.7 28.4-28.4 28.4H312.7c-15.7 0-28.4-12.7-28.4-28.4-0.1-15.7 12.7-28.4 28.4-28.4z m99.5 199.1h-99.6c-15.7 0-28.4-12.7-28.4-28.4s12.7-28.4 28.4-28.4h99.6c15.7 0 28.4 12.7 28.4 28.4 0.1 15.7-12.7 28.4-28.4 28.4z m296.3 184.9l-90.1-42.7-90.1 42.7 21.4-85.3-66.4-85.3h90.1l45-85.3 45 85.3h90.1L687 703.8l21.5 85.3z" fill="#FFCA3A" p-id="2792"></path></svg>