<?xml version="1.0" standalone="no"?><!DOCTYPE svg PUBLIC "-//W3C//DTD SVG 1.1//EN" "http://www.w3.org/Graphics/SVG/1.1/DTD/svg11.dtd"><svg t="1552976747257" class="icon" style="" viewBox="0 0 1024 1024" version="1.1" xmlns="http://www.w3.org/2000/svg" p-id="3140" xmlns:xlink="http://www.w3.org/1999/xlink" width="200" height="200"><defs><style type="text/css"></style></defs><path d="M812.1 87H211.9c-55.2 0-100 44.8-100 100v650c0 55.2 44.8 100 100 100H812c55.2 0 100-44.8 100-100V187c0.1-55.3-44.7-100-99.9-100zM655.8 712H343.2c-17.5 0-31.3-16.5-31.3-37.5s13.7-37.5 31.3-37.5h312.5c17.5 0 31.3 16.5 31.3 37.5S673.3 712 655.8 712zM312 499.5c0-21 14.3-37.5 32.5-37.5h260c18.2 0 32.5 16.5 32.5 37.5S622.7 537 604.5 537h-260c-18.2 0-32.5-16.5-32.5-37.5zM706.7 362H342.3c-17 0-30.4-16.5-30.4-37.5s13.4-37.5 30.4-37.5h364.3c17 0 30.4 16.5 30.4 37.5S723.7 362 706.7 362z" fill="#FFA33B" p-id="3141"></path></svg>