<?xml version="1.0" standalone="no"?><!DOCTYPE svg PUBLIC "-//W3C//DTD SVG 1.1//EN" "http://www.w3.org/Graphics/SVG/1.1/DTD/svg11.dtd"><svg t="1552976725359" class="icon" style="" viewBox="0 0 1024 1024" version="1.1" xmlns="http://www.w3.org/2000/svg" p-id="2907" xmlns:xlink="http://www.w3.org/1999/xlink" width="200" height="200"><defs><style type="text/css"></style></defs><path d="M504.2 618c127.6-0.2 212.6-167.3 212.6-257.2 0-89.9-0.4-249.8-212.6-249.8S291.6 270.9 291.6 360.8s85 257.4 212.6 257.2z m361.9 126.8C812 703.3 655.8 634.3 655.8 634.3L554.4 817.9l-15-43.7 27.7-55.2-55.5-55.2-55.5 55.2 27.8 55.2L466 819l-98.6-184.6s-156.1 69-210.3 110.5C102.9 786.3 79 912.3 79 912.3h866.7s-15.8-118.6-79.6-167.5z" fill="#744CFF" p-id="2908"></path></svg>